<?xml version="1.0" standalone="no"?>
<!DOCTYPE svg PUBLIC "-//W3C//DTD SVG 20010904//EN"
 "http://www.w3.org/TR/2001/REC-SVG-20010904/DTD/svg10.dtd">
<svg version="1.0" xmlns="http://www.w3.org/2000/svg"
 width="593.000000pt" height="593.000000pt" viewBox="0 0 593.000000 593.000000"
 preserveAspectRatio="xMidYMid meet">
<metadata>
Created by potrace 1.11, written by Peter Selinger 2001-2013
</metadata>
<g transform="translate(0.000000,593.000000) scale(0.100000,-0.100000)"
fill="#000000" stroke="none">
<path d="M2968 4474 c-3 -3 -39 -7 -79 -9 -88 -4 -160 -13 -214 -27 -22 -6
-51 -12 -65 -14 -30 -6 -87 -22 -115 -34 -11 -4 -47 -18 -80 -31 -33 -12 -70
-29 -82 -37 -13 -8 -23 -10 -23 -6 0 5 -7 0 -15 -10 -8 -11 -15 -17 -15 -13 0
4 -22 -7 -49 -23 -26 -17 -51 -30 -55 -30 -4 0 -14 -6 -21 -12 -22 -20 -38
-32 -68 -51 -89 -57 -252 -225 -341 -351 -53 -75 -166 -286 -166 -311 0 -8 -5
-15 -12 -15 -6 0 -9 -3 -6 -6 4 -3 -5 -38 -18 -77 -14 -40 -27 -85 -30 -102
-3 -16 -9 -48 -14 -70 -15 -67 -22 -135 -25 -240 -2 -55 -4 -103 -4 -108 -1
-4 -13 -13 -28 -20 -16 -6 -30 -14 -33 -18 -3 -3 -17 -12 -32 -20 -15 -8 -64
-33 -110 -57 -46 -24 -96 -54 -113 -66 -16 -12 -42 -27 -57 -34 -16 -6 -28
-16 -28 -22 0 -5 -5 -10 -12 -10 -6 0 -26 -11 -44 -25 -18 -14 -35 -25 -39
-25 -3 0 -18 -11 -33 -25 -15 -14 -32 -25 -39 -25 -7 0 -13 -4 -13 -8 0 -4
-21 -24 -48 -45 -62 -47 -142 -125 -142 -136 0 -5 -3 -11 -8 -13 -27 -12 -146
-188 -127 -188 3 0 1 -8 -4 -18 -19 -35 -30 -163 -19 -212 8 -34 33 -86 48
-97 8 -7 11 -13 6 -13 -12 0 70 -80 83 -80 6 0 11 -4 11 -10 0 -5 3 -10 8 -9
14 2 52 -13 52 -21 0 -9 45 -28 75 -33 11 -1 26 -6 33 -10 7 -5 12 -3 12 4 0
8 4 8 12 2 7 -6 21 -9 30 -8 10 2 18 0 18 -3 0 -4 19 -7 43 -6 23 0 46 -2 51
-4 15 -8 156 -7 156 1 0 10 23 4 32 -8 5 -6 8 -6 8 2 0 6 8 10 18 8 9 -1 23 3
31 9 12 9 13 8 6 -4 -7 -12 -6 -13 6 -5 8 6 31 11 52 10 20 0 37 3 37 7 0 5 3
7 8 6 7 -2 102 11 137 19 37 8 50 11 50 13 0 1 14 3 30 5 17 1 30 4 30 5 0 1
9 4 20 6 21 3 57 11 65 14 3 1 9 2 14 1 10 -2 81 20 195 61 46 17 86 26 90 21
3 -5 22 -20 41 -33 19 -13 37 -27 40 -30 16 -18 141 -93 223 -133 148 -72 318
-123 473 -143 61 -7 296 -12 308 -6 4 3 25 6 45 8 63 5 114 14 176 29 84 21
85 22 132 38 22 9 44 13 47 10 3 -4 6 -1 6 5 0 7 3 11 8 10 17 -3 195 84 263
129 23 16 51 33 62 40 11 6 22 15 26 20 3 4 24 21 46 37 61 45 160 143 223
221 31 39 60 72 65 73 4 2 7 8 7 13 0 5 20 39 44 77 24 38 47 78 50 90 4 12
12 22 17 22 5 0 8 3 7 8 -1 4 8 30 21 57 13 28 24 55 25 60 2 6 8 21 13 35 6
14 9 28 6 33 -2 4 0 7 5 7 5 0 9 6 9 13 1 6 11 48 22 92 36 134 42 181 45 334
l2 115 73 48 c40 26 76 48 80 48 4 0 16 9 26 20 10 11 23 20 30 20 7 0 20 9
30 20 10 11 20 18 22 16 3 -2 13 3 22 12 10 10 26 23 37 29 38 25 135 93 150
105 39 33 222 217 219 220 -3 2 7 17 20 32 14 16 25 32 25 36 0 4 11 20 25 36
14 16 25 34 25 41 0 7 7 16 15 20 21 12 46 135 35 173 -5 18 -5 32 1 35 5 4 5
14 -1 26 -6 11 -8 24 -5 29 3 6 -1 10 -9 10 -9 0 -16 5 -16 11 0 6 6 7 13 2 6
-4 -4 12 -22 36 -19 24 -43 46 -53 49 -10 2 -15 8 -12 13 3 5 -2 9 -10 9 -9 0
-16 3 -16 8 0 7 -60 37 -70 35 -3 -1 -14 4 -25 10 -11 6 -29 13 -40 15 -29 5
-50 10 -50 12 0 1 -81 10 -132 14 -24 2 -43 0 -43 -3 0 -3 -24 -6 -53 -7 -200
-3 -434 -34 -421 -56 4 -6 -1 -6 -14 1 -12 6 -23 8 -26 3 -2 -4 -19 -9 -37
-10 -18 -2 -36 -6 -39 -10 -5 -6 -13 -8 -62 -14 -10 -1 -18 -6 -18 -10 0 -4
-9 -5 -20 -3 -11 2 -20 1 -20 -3 0 -7 -54 -28 -95 -37 -13 -3 -34 7 -60 30
-77 67 -87 75 -92 75 -3 0 -26 15 -52 33 -49 36 -283 154 -316 160 -11 2 -27
6 -35 9 -43 15 -88 28 -110 32 -183 35 -188 35 -270 39 -30 1 -58 7 -62 12 -5
6 -8 5 -8 -4 0 -10 -3 -11 -13 -2 -8 6 -16 8 -19 5z m212 -78 c14 -3 41 -8 60
-11 49 -6 194 -48 260 -75 54 -21 225 -107 245 -122 6 -4 48 -35 94 -69 97
-72 212 -185 277 -273 25 -33 52 -69 59 -78 8 -10 11 -18 7 -18 -4 0 -2 -4 4
-8 32 -20 174 -331 174 -381 0 -5 -26 -30 -57 -55 -32 -25 -65 -52 -73 -59 -8
-7 -27 -21 -42 -30 -26 -16 -27 -16 -21 0 3 10 17 33 31 52 l26 34 -46 -31
c-25 -17 -72 -60 -105 -96 -32 -35 -68 -69 -80 -75 l-21 -11 18 50 c10 28 17
50 15 50 -2 0 1 15 6 33 6 17 12 43 15 57 2 14 6 36 8 50 3 14 5 25 6 25 1 0
4 14 6 30 4 28 30 151 39 185 2 8 4 18 4 22 1 3 13 20 27 37 28 33 21 41 -11
13 -28 -23 -85 -115 -85 -135 0 -10 -4 -17 -10 -17 -5 0 -10 -8 -10 -17 0 -10
-4 -24 -9 -32 -7 -10 -11 0 -16 35 -3 27 -10 58 -15 69 -4 11 -16 43 -25 70
-21 60 -37 97 -83 195 -42 86 -49 163 -20 218 17 34 15 41 -6 19 -43 -42 -58
-118 -45 -214 9 -63 11 -72 34 -153 9 -30 19 -64 22 -75 8 -32 10 -148 2 -175
-6 -23 -7 -22 -9 10 -7 105 -29 187 -78 279 -53 101 -106 174 -181 250 -68 67
-219 171 -251 171 -9 0 -20 4 -26 8 -9 9 -80 31 -121 38 -13 3 -23 0 -23 -6 0
-5 3 -9 8 -9 4 1 9 1 12 -1 3 -1 14 -3 25 -5 12 -2 43 -14 70 -26 28 -12 52
-21 54 -20 2 2 7 -1 10 -6 3 -5 23 -19 44 -31 39 -23 48 -29 100 -77 162 -149
227 -409 167 -665 0 -3 -8 9 -17 25 -10 17 -16 33 -15 37 1 3 -6 9 -14 12 -12
4 -14 1 -9 -14 13 -40 12 -157 -1 -209 -14 -54 -45 -106 -75 -128 -10 -7 -36
-31 -59 -53 -23 -22 -43 -40 -45 -40 -5 0 -122 -118 -151 -152 -12 -14 -24
-31 -26 -39 -4 -9 -12 -3 -24 18 -11 18 -22 33 -26 33 -5 0 -8 4 -8 9 0 4 -16
25 -35 45 -32 34 -35 43 -35 95 0 32 3 61 7 65 4 3 8 16 10 28 10 63 109 161
172 171 29 5 34 12 15 28 -24 19 -44 20 -87 4 -21 -9 -60 -15 -85 -14 -79 2
-122 -17 -202 -92 -56 -52 -170 -95 -242 -92 -60 3 -20 -25 67 -46 44 -11 139
-5 168 10 17 10 17 9 4 -18 -25 -52 -21 -106 14 -180 47 -97 51 -123 24 -171
-19 -35 -54 -76 -60 -70 -3 2 -9 28 -15 58 -20 104 -63 150 -210 221 -222 108
-324 160 -350 179 -16 11 -31 20 -35 20 -16 0 -115 89 -139 125 -24 36 -26 37
-26 15 -1 -22 -7 -19 -55 34 -30 33 -55 63 -55 69 0 5 -9 22 -21 38 -11 16
-17 29 -13 29 3 0 2 6 -4 13 -19 23 -42 129 -42 192 0 49 11 111 33 190 5 17
44 92 67 129 26 44 14 47 -20 5 -14 -17 -40 -47 -58 -67 -17 -20 -35 -45 -38
-54 -3 -10 -10 -18 -15 -18 -6 0 -8 -4 -5 -9 4 -5 3 -11 -2 -13 -16 -6 -73
-151 -75 -190 -1 -10 -4 -18 -7 -18 -8 0 -10 -28 -11 -131 -2 -91 20 -182 61
-254 29 -52 24 -55 -16 -11 -102 113 -148 288 -120 451 7 37 6 39 -8 21 -9
-11 -25 -44 -36 -73 -51 -135 -46 -269 16 -483 17 -58 150 -210 184 -210 5 0
10 -4 10 -9 0 -5 14 -14 30 -21 17 -7 30 -16 30 -20 0 -10 -71 24 -135 65 -95
60 -198 177 -177 200 4 5 1 5 -6 1 -7 -4 -10 -11 -8 -15 3 -4 8 -22 11 -40 13
-74 77 -230 98 -239 4 -2 7 -8 7 -14 0 -25 92 -96 265 -203 158 -98 205 -128
205 -132 0 -2 -3 -3 -7 -1 -88 42 -131 63 -193 92 -41 20 -84 41 -95 48 -94
61 -135 91 -162 118 -40 39 -41 29 -7 -53 55 -133 100 -204 174 -277 31 -30
101 -67 248 -131 64 -28 33 -35 -63 -15 -67 15 -130 41 -153 63 -40 39 -18 -3
45 -85 19 -25 30 -48 26 -52 -7 -6 -67 -23 -123 -35 -8 -2 -27 -6 -42 -10 -22
-6 -32 -2 -53 20 -14 16 -25 34 -25 41 0 7 -3 14 -8 16 -11 5 -75 98 -97 143
-11 22 -24 43 -28 46 -5 3 -8 8 -6 10 1 2 -8 27 -20 54 -28 63 -61 163 -61
185 0 9 -3 20 -7 24 -4 3 -8 12 -9 19 -1 7 -5 32 -9 57 -3 25 -10 61 -14 80
-8 37 -6 337 3 380 3 14 8 41 11 60 7 44 13 75 15 75 1 0 3 8 5 19 5 26 58
180 65 186 3 3 6 12 8 20 8 37 129 251 172 303 149 182 291 304 459 396 80 44
248 115 301 127 19 4 40 9 45 10 6 1 32 7 59 13 26 7 74 14 105 18 31 3 58 7
60 9 6 5 314 -4 341 -10z m1630 -208 c0 -4 12 -3 27 3 20 7 28 6 35 -3 6 -11
8 -11 8 0 0 7 5 10 11 6 6 -4 35 -8 64 -9 54 -2 185 -42 185 -57 0 -4 6 -8 13
-8 14 0 73 -60 70 -72 -2 -4 1 -8 6 -8 16 0 38 -84 36 -140 -2 -71 -62 -197
-133 -281 -50 -59 -207 -214 -242 -239 -19 -13 -44 -32 -54 -42 -11 -10 -23
-18 -27 -18 -5 0 -20 -11 -34 -25 -14 -14 -25 -23 -25 -20 0 4 -13 -3 -29 -14
-16 -12 -31 -21 -34 -21 -9 0 -162 -103 -169 -114 -4 -6 -8 -8 -8 -3 0 4 -11
0 -25 -9 -24 -16 -25 -16 -26 7 0 13 -2 39 -5 58 -3 25 1 39 15 53 11 10 23
18 26 18 4 0 13 6 20 13 22 19 38 31 68 50 31 20 154 134 196 181 14 16 40 43
56 60 45 46 79 94 107 156 40 85 48 116 35 130 -9 10 -9 11 1 6 19 -11 15 39
-8 84 -11 21 -34 49 -52 62 -42 29 -132 67 -183 76 -94 16 -281 1 -475 -37
-30 -6 -66 -14 -80 -17 -66 -17 -111 -16 -131 1 -10 10 -19 21 -19 24 0 11 74
39 113 43 9 1 17 5 17 8 0 3 12 7 26 8 15 1 32 6 38 10 6 5 21 7 34 6 12 0 22
2 22 5 0 4 8 7 18 8 9 0 26 3 37 6 70 18 117 27 125 22 5 -3 11 -1 15 5 4 6
10 8 15 5 5 -3 11 -1 15 5 4 7 12 7 26 0 10 -6 19 -7 19 -2 0 5 18 8 40 8 22
-1 40 1 40 5 0 3 29 5 65 4 36 0 65 2 65 5 0 3 11 5 25 5 14 0 25 -3 25 -7z
m-70 -163 c19 -4 41 -8 48 -8 6 0 12 -5 12 -10 0 -6 3 -8 6 -4 18 18 116 -62
134 -110 16 -40 2 -115 -36 -192 -31 -64 -58 -97 -173 -211 -75 -74 -156 -149
-181 -165 -25 -17 -56 -40 -70 -52 -28 -26 -38 -20 -50 31 -7 32 -5 40 19 64
28 28 111 137 111 146 0 3 14 29 31 58 23 39 33 70 37 116 3 35 1 62 -5 62 -5
0 -9 9 -10 21 -2 25 -53 76 -89 89 -14 6 -48 12 -76 15 -27 3 -59 10 -69 16
-11 5 -23 8 -27 5 -4 -3 -49 -7 -99 -10 l-91 -6 -26 34 c-14 19 -26 37 -26 40
0 4 55 20 75 21 6 0 16 4 23 8 6 5 16 6 21 2 5 -3 12 -2 15 3 2 4 21 9 42 10
20 2 42 6 48 10 6 3 20 7 31 8 70 6 170 16 172 18 6 5 171 -2 203 -9z m-301
-178 c49 -6 133 -45 125 -58 -3 -5 -1 -9 5 -9 8 0 20 -23 27 -52 1 -5 2 -9 4
-10 23 -28 -48 -178 -122 -257 -26 -28 -51 -51 -57 -51 -5 0 -12 -6 -14 -12
-3 -7 -6 -1 -6 13 -1 14 -4 29 -8 33 -4 3 -8 12 -9 19 -6 39 -98 237 -133 285
-12 17 -21 34 -21 38 0 4 -8 16 -17 26 -21 24 -6 37 38 34 16 -1 29 1 29 4 0
6 86 5 159 -3z m-53 -574 c3 -16 7 -32 8 -38 3 -13 -11 -26 -51 -50 -18 -11
-33 -23 -33 -27 0 -4 -6 -8 -14 -8 -8 0 -21 -6 -28 -13 -7 -6 -38 -25 -68 -40
-30 -16 -65 -35 -77 -43 -22 -16 -22 -15 -12 23 9 33 61 98 73 91 2 -2 16 7
30 20 15 12 30 22 35 22 5 0 11 4 13 9 3 10 99 79 110 80 4 1 10 -11 14 -26z
m26 -150 c2 -27 -1 -51 -8 -57 -29 -27 -55 -46 -63 -46 -5 0 -23 -12 -40 -26
-17 -14 -31 -22 -31 -18 0 4 -8 0 -18 -9 -10 -10 -22 -14 -25 -10 -4 3 -7 2
-7 -4 0 -5 -6 -10 -14 -10 -10 0 -9 10 5 49 9 27 17 50 16 51 -7 15 139 124
169 126 7 1 14 -19 16 -46z m-224 -88 c-6 -14 -15 -25 -20 -25 -4 0 -7 -3 -6
-7 1 -5 -6 -29 -16 -55 -14 -37 -29 -54 -65 -76 -92 -58 -141 -83 -141 -72 0
5 3 10 8 10 4 0 21 20 37 45 17 24 33 45 38 45 4 0 7 6 7 13 0 22 52 73 97 97
23 12 47 28 54 36 17 21 20 17 7 -11z m-237 -33 c-12 -22 -51 -58 -51 -46 0
12 43 64 53 64 4 0 3 -8 -2 -18z m465 -94 c-5 -126 -12 -187 -28 -236 -5 -18
-11 -43 -12 -55 -4 -34 -45 -158 -64 -192 -9 -16 -16 -31 -15 -32 4 -7 -10
-43 -16 -43 -4 0 -8 -6 -8 -12 0 -7 -18 -42 -39 -78 -21 -36 -45 -77 -54 -92
-13 -23 -47 -69 -75 -101 -66 -77 -80 -92 -87 -90 -4 2 -8 -2 -8 -8 0 -15 -56
-69 -70 -69 -6 0 -8 -4 -5 -10 3 -5 2 -10 -4 -10 -5 0 -22 -11 -37 -25 -57
-53 -284 -192 -344 -211 -41 -13 -50 -18 -50 -26 0 -5 -4 -7 -8 -4 -7 4 -67
-14 -132 -41 -8 -3 -18 -5 -22 -5 -4 1 -34 -4 -65 -11 -32 -8 -68 -13 -80 -12
-13 1 -23 -2 -23 -6 0 -3 -17 -7 -37 -7 -21 -1 -68 -3 -105 -5 -38 -2 -68 -2
-68 2 0 11 86 83 121 102 21 10 57 21 81 25 53 8 107 35 176 86 45 33 69 56
147 142 34 38 85 106 85 115 0 5 6 14 13 18 15 10 49 74 43 80 -3 3 -11 1 -18
-3 -7 -5 -17 -10 -23 -11 -5 -1 -44 -12 -85 -23 -41 -11 -82 -22 -90 -24 -8
-1 -32 -10 -54 -19 -21 -9 -42 -17 -47 -17 -5 0 -9 -4 -9 -9 0 -5 -8 -12 -17
-15 -17 -6 -53 -58 -53 -77 0 -5 -16 -42 -35 -83 -39 -81 -92 -144 -142 -170
-55 -28 -42 7 26 72 32 32 64 68 71 80 15 29 19 90 9 119 -6 16 -1 32 17 59
56 82 145 129 304 158 71 14 89 18 138 36 140 52 258 142 308 236 10 19 22 34
26 34 5 0 8 9 8 19 0 11 4 22 9 26 5 3 12 19 16 35 4 17 11 30 16 30 6 0 8 4
5 8 -3 5 1 26 8 48 12 35 23 89 31 164 2 14 3 28 4 32 1 4 15 17 33 29 29 21
31 22 24 3 -4 -10 -9 -31 -11 -47 -2 -15 -6 -31 -9 -35 -2 -4 -7 -28 -11 -52
-3 -25 -8 -53 -11 -63 -6 -19 -13 -61 -19 -114 -8 -75 -127 -255 -156 -237 -5
3 -9 0 -9 -5 0 -6 4 -11 10 -11 16 0 60 23 60 32 0 4 6 8 14 8 17 0 90 72 125
125 62 92 87 182 89 323 1 57 7 112 12 123 6 10 31 29 55 40 25 12 45 25 45
30 0 5 7 9 16 9 9 0 28 8 42 18 30 19 66 41 70 41 1 1 0 -50 -2 -111z m-2933
-110 c5 -44 4 -47 -24 -58 -16 -7 -29 -16 -29 -20 0 -5 -12 -13 -27 -19 -26
-10 -102 -61 -146 -96 -9 -8 -22 -15 -27 -15 -6 0 -10 -4 -10 -8 0 -5 -24 -25
-52 -45 -29 -20 -76 -60 -104 -89 -28 -29 -54 -54 -57 -55 -4 -2 -6 -4 -5 -5
2 -3 -5 -12 -59 -76 -13 -15 -23 -33 -23 -39 0 -7 -4 -13 -9 -13 -9 0 -21 -36
-27 -82 -2 -15 -5 -31 -6 -35 -4 -16 14 -109 28 -142 15 -37 68 -93 78 -84 3
4 6 2 6 -4 0 -6 8 -13 18 -16 9 -4 35 -13 57 -22 22 -9 51 -18 65 -21 14 -3
41 -8 60 -13 36 -7 222 -6 275 2 17 3 53 8 80 12 28 3 57 8 65 10 8 2 31 7 50
11 19 3 40 7 45 8 6 1 15 5 21 8 6 4 24 9 40 12 16 3 30 10 32 16 2 5 7 8 12
5 5 -3 20 -1 34 5 23 8 31 4 73 -35 27 -25 42 -45 36 -45 -18 0 -25 -2 -52
-16 -14 -7 -28 -11 -33 -8 -4 3 -8 0 -8 -6 0 -6 -4 -9 -9 -5 -5 3 -12 1 -16
-5 -4 -6 -10 -8 -15 -5 -5 3 -11 1 -15 -4 -3 -5 -14 -8 -25 -6 -11 2 -20 0
-20 -4 0 -4 -6 -8 -12 -9 -16 -1 -38 -7 -58 -15 -8 -3 -42 -11 -75 -18 -33 -6
-67 -13 -75 -14 -8 -2 -15 -4 -15 -5 0 -1 -16 -3 -35 -4 -19 -2 -47 -6 -62
-11 -15 -4 -44 -8 -65 -10 -21 -2 -38 -4 -38 -5 0 -3 -108 -10 -220 -15 -55
-2 -127 0 -160 6 -33 6 -70 12 -82 14 -12 2 -30 8 -40 13 -10 5 -24 7 -30 5
-7 -3 -13 0 -13 6 0 6 -7 11 -15 11 -9 0 -33 11 -55 25 -97 61 -144 146 -141
250 2 52 23 128 42 151 6 8 8 14 5 14 -15 0 75 129 97 138 4 2 7 11 7 19 0 9
3 14 6 10 3 -3 19 10 36 29 30 34 200 174 212 174 8 0 31 18 53 42 9 9 20 15
25 12 4 -3 8 -1 8 4 0 4 19 19 43 32 23 13 51 32 61 42 11 10 25 18 31 18 6 0
20 7 30 15 17 14 248 134 251 131 1 -1 4 -22 7 -48z m2511 -33 c-9 -14 -20
-25 -25 -25 -5 0 -9 -7 -9 -15 0 -8 -7 -15 -15 -15 -8 0 -15 -5 -15 -10 0 -11
-90 -98 -142 -137 -66 -49 -182 -100 -192 -84 -3 4 3 15 14 23 10 9 30 37 45
62 14 25 35 48 47 52 11 3 39 19 63 35 24 16 47 29 53 29 5 0 13 7 16 16 3 8
9 13 14 10 4 -2 27 9 51 25 24 16 47 26 52 23 5 -3 9 -1 9 4 0 7 31 27 48 31
1 1 -5 -10 -14 -24z m-2492 -93 c4 -30 -3 -40 -63 -84 -57 -41 -156 -148 -160
-173 -1 -5 -8 -15 -16 -20 -8 -6 -15 -17 -17 -25 -2 -8 -8 -28 -15 -45 -30
-72 -8 -181 46 -225 27 -23 91 -51 127 -57 17 -3 36 -6 43 -7 7 -1 14 -4 17
-7 6 -5 228 -2 283 4 38 5 45 2 68 -25 15 -17 22 -34 18 -38 -11 -8 -162 -50
-190 -53 -13 -1 -23 -6 -23 -12 0 -5 -4 -4 -9 4 -6 9 -11 10 -15 2 -4 -6 -12
-9 -17 -6 -5 4 -9 1 -9 -5 0 -6 -4 -8 -10 -5 -5 3 -26 2 -45 -4 -26 -7 -35 -6
-35 2 0 8 -3 8 -8 2 -10 -14 -57 -19 -182 -18 -101 1 -128 3 -160 16 -8 3 -33
11 -55 18 -45 13 -103 48 -123 72 -15 18 -52 133 -46 140 3 2 7 15 9 27 9 44
27 90 36 90 5 0 8 3 7 8 -4 14 24 58 67 105 11 12 30 35 43 51 12 16 22 26 22
22 0 -3 17 11 37 31 20 21 40 37 45 36 4 -2 8 1 8 5 0 5 25 26 55 47 30 20 55
41 55 46 0 5 6 9 13 9 6 0 30 14 51 30 22 17 46 30 53 30 7 0 13 4 13 8 0 10
62 41 71 36 4 -2 9 -17 11 -32z m41 -163 c32 -103 101 -251 164 -351 47 -75
46 -80 -28 -84 -26 -1 -51 -4 -56 -6 -21 -12 -217 6 -237 21 -6 4 -27 14 -46
21 -19 8 -47 27 -61 42 -23 25 -27 38 -27 90 1 66 23 120 81 193 39 49 162
164 177 165 3 0 18 -41 33 -91z m747 -349 c0 -10 -9 -24 -19 -30 -27 -14 -34
-13 -28 4 3 8 1 16 -5 18 -20 7 2 28 28 28 17 0 24 -5 24 -20z m-197 -70 c16
-19 15 -20 -29 -41 -25 -11 -55 -21 -65 -22 -10 -1 -19 -6 -19 -11 0 -5 -3 -6
-7 -3 -3 4 -11 3 -17 -2 -28 -21 -47 -19 -72 6 l-27 26 69 23 c38 13 82 26 99
29 16 3 31 8 34 11 8 8 17 4 34 -16z m192 -59 c1 -31 -3 -44 -16 -52 -15 -8
-20 -3 -28 28 -13 47 -14 66 -2 58 5 -3 13 -1 16 5 14 22 28 3 30 -39z m-93
-43 c22 -22 18 -48 -9 -49 -10 0 -40 -11 -68 -24 -27 -13 -53 -21 -57 -19 -5
3 -8 0 -8 -5 0 -21 -35 -10 -67 21 -36 35 -41 48 -17 48 14 0 53 15 139 55 32
15 51 9 87 -27z m144 -100 c21 -27 74 -55 154 -82 75 -25 160 -56 178 -65 9
-4 39 -19 67 -32 27 -13 56 -28 63 -34 46 -34 76 -69 87 -102 12 -34 11 -39
-3 -44 -10 -4 -24 -3 -32 1 -8 3 -35 8 -60 9 -56 3 -135 16 -135 21 0 2 -26 8
-65 16 -96 17 -284 100 -400 176 -78 51 -125 87 -119 92 13 10 119 56 144 62
17 4 36 11 43 17 6 5 12 6 12 1 0 -4 6 -2 12 4 10 10 15 10 23 -1 5 -7 19 -25
31 -39z"/>
<path d="M3117 4189 c7 -7 15 -10 18 -7 3 3 -2 9 -12 12 -14 6 -15 5 -6 -5z"/>
<path d="M3953 2220 c-74 -26 -206 -107 -256 -155 -78 -77 -198 -207 -194
-212 10 -9 144 29 205 60 67 33 163 118 194 172 28 48 41 66 76 104 17 19 32
39 32 43 0 10 5 11 -57 -12z"/>
</g>
</svg>
